<svg width="21" height="20" viewBox="0 0 21 20" fill="none" xmlns="http://www.w3.org/2000/svg">
<path d="M19.9628 8.69904C19.9623 8.69858 19.9618 8.69812 19.9614 8.69766L11.8021 0.539551C11.4544 0.19165 10.992 0 10.5001 0C10.0083 0 9.54589 0.191498 9.19796 0.539398L1.04298 8.69339C1.04024 8.69614 1.03749 8.69904 1.03474 8.70178C0.320559 9.42001 0.32178 10.5853 1.03825 11.3017C1.36559 11.6292 1.79791 11.8188 2.26015 11.8387C2.27892 11.8405 2.29784 11.8414 2.31692 11.8414H2.64212V17.8453C2.64212 19.0334 3.60886 20 4.79733 20H7.98949C8.31301 20 8.57549 19.7377 8.57549 19.4141V14.707C8.57549 14.1649 9.01651 13.7239 9.55871 13.7239H11.4415C11.9837 13.7239 12.4248 14.1649 12.4248 14.707V19.4141C12.4248 19.7377 12.6871 20 13.0108 20H16.2029C17.3914 20 18.3581 19.0334 18.3581 17.8453V11.8414H18.6597C19.1514 11.8414 19.6138 11.6499 19.9618 11.302C20.6791 10.5844 20.6794 9.41711 19.9628 8.69904Z" fill="#CC003D"/>
</svg>
