<svg width="24" height="24" viewBox="0 0 24 24" fill="none" xmlns="http://www.w3.org/2000/svg">
<path d="M12.8672 18.4043H11.1094V16.6465H12.8672V18.4043ZM12.8672 13.269C14.5666 12.8578 15.7441 11.3161 15.6769 9.57253C15.604 7.67395 14.0463 6.1301 12.1308 6.05841C11.1075 6.01982 10.1409 6.38635 9.41034 7.08989C8.69225 7.78162 8.29688 8.70955 8.29688 9.70312H10.0547C10.0547 9.19157 10.2588 8.71312 10.6295 8.35606C11.0131 7.98665 11.5225 7.79507 12.0649 7.81485C13.0676 7.85262 13.8826 8.65421 13.9205 9.64009C13.9557 10.5588 13.3216 11.3706 12.4124 11.5701C11.6451 11.7385 11.1094 12.4015 11.1094 13.1825V14.8887H12.8672V13.269ZM19.9432 19.9432C22.0681 17.8185 23.2383 14.9932 23.2383 11.9883C23.2383 8.98338 22.0681 6.15811 19.9432 4.03336C17.8185 1.90846 14.9932 0.738281 11.9883 0.738281C8.98338 0.738281 6.15811 1.90846 4.03336 4.03336C1.90846 6.15811 0.738281 8.98338 0.738281 11.9883C0.738281 14.9932 1.90846 17.8185 4.03336 19.9432C6.15811 22.0681 8.98338 23.2383 11.9883 23.2383C14.9932 23.2383 17.8185 22.0681 19.9432 19.9432ZM21.4805 11.9883C21.4805 17.2222 17.2222 21.4805 11.9883 21.4805C6.75439 21.4805 2.49609 17.2222 2.49609 11.9883C2.49609 6.75439 6.75439 2.49609 11.9883 2.49609C17.2222 2.49609 21.4805 6.75439 21.4805 11.9883Z" fill="#1C1D1F"/>
</svg>
