<svg width="20" height="20" viewBox="0 0 20 20" fill="none" xmlns="http://www.w3.org/2000/svg">
<path d="M17.5833 2.41656C17.3508 2.18098 17.0738 1.99393 16.7683 1.86626C16.4629 1.73859 16.1352 1.67285 15.8042 1.67285C15.4731 1.67285 15.1454 1.73859 14.84 1.86626C14.5346 1.99393 14.2576 2.18098 14.025 2.41656L12.425 4.04156L15.9583 7.57489L17.5583 5.97489C17.7956 5.744 17.9846 5.46829 18.1144 5.16377C18.2442 4.85925 18.3122 4.53198 18.3146 4.20095C18.3169 3.86992 18.2535 3.54173 18.1279 3.23541C18.0024 2.9291 17.8173 2.65076 17.5833 2.41656Z" fill="white"/>
<path d="M11.2417 5.22485L4.25 12.2165C4.18732 12.281 4.13402 12.3539 4.09167 12.4332L1.775 17.1082C1.70779 17.2344 1.67418 17.3757 1.6774 17.5187C1.68061 17.6616 1.72055 17.8013 1.79337 17.9244C1.86619 18.0474 1.96944 18.1496 2.09319 18.2212C2.21694 18.2928 2.35704 18.3314 2.5 18.3332C2.62697 18.3337 2.75239 18.3052 2.86667 18.2499L7.54167 15.9332C7.62096 15.8908 7.69389 15.8375 7.75833 15.7749L14.75 8.78319L11.2417 5.22485Z" fill="white"/>
<path d="M17.5 18.3332H10C9.77899 18.3332 9.56703 18.2454 9.41075 18.0891C9.25447 17.9328 9.16667 17.7209 9.16667 17.4998C9.16667 17.2788 9.25447 17.0669 9.41075 16.9106C9.56703 16.7543 9.77899 16.6665 10 16.6665H17.5C17.721 16.6665 17.933 16.7543 18.0893 16.9106C18.2455 17.0669 18.3333 17.2788 18.3333 17.4998C18.3333 17.7209 18.2455 17.9328 18.0893 18.0891C17.933 18.2454 17.721 18.3332 17.5 18.3332Z" fill="white"/>
</svg>
