<svg width="48" height="48" viewBox="0 0 48 48" fill="none" xmlns="http://www.w3.org/2000/svg">
<path fill-rule="evenodd" clip-rule="evenodd" d="M5.5 12C5.5 8.41014 8.41014 5.5 12 5.5H28C28.8284 5.5 29.5 4.82842 29.5 4C29.5 3.17158 28.8284 2.5 28 2.5H12C6.7533 2.5 2.5 6.7533 2.5 12V36C2.5 41.2468 6.7533 45.5 12 45.5H36C41.2468 45.5 45.5 41.2468 45.5 36V20C45.5 19.1716 44.8284 18.5 44 18.5C43.1716 18.5 42.5 19.1716 42.5 20V27.0182C42.4098 26.946 42.316 26.8774 42.2188 26.8126L37.457 23.638C34.284 21.5226 30.059 21.941 27.3624 24.6376L20.6376 31.3624C17.941 34.059 13.716 34.4774 10.5431 32.362L5.5 29V12ZM39.5 4C39.5 3.17158 38.8284 2.5 38 2.5C37.1716 2.5 36.5 3.17158 36.5 4V8.5H32C31.1716 8.5 30.5 9.17158 30.5 10C30.5 10.8284 31.1716 11.5 32 11.5H36.5V16C36.5 16.8284 37.1716 17.5 38 17.5C38.8284 17.5 39.5 16.8284 39.5 16V11.5H44C44.8284 11.5 45.5 10.8284 45.5 10C45.5 9.17158 44.8284 8.5 44 8.5H39.5V4ZM17 22C19.7614 22 22 19.7614 22 17C22 14.2386 19.7614 12 17 12C14.2386 12 12 14.2386 12 17C12 19.7614 14.2386 22 17 22Z" fill="#CC003D"/>
</svg>
