<svg width="36" height="36" viewBox="0 0 36 36" fill="none" xmlns="http://www.w3.org/2000/svg">
<path fill-rule="evenodd" clip-rule="evenodd" d="M32.466 16.5472L30.0756 13.7354C29.7728 13.3788 29.5892 12.9363 29.5507 12.4701C29.4851 11.5328 29.3444 10.0332 29.2507 8.80537C29.2095 8.2731 28.9787 7.77326 28.6003 7.39662C28.2219 7.01998 27.721 6.79153 27.1884 6.75275L23.5232 6.45282C23.0569 6.41428 22.6144 6.23074 22.2577 5.92795C21.5828 5.34684 20.3829 4.34396 19.4455 3.53791C19.041 3.19081 18.5256 2.99998 17.9926 2.99998C17.4595 2.99998 16.9441 3.19081 16.5396 3.53791L13.7274 5.92795C13.3708 6.23074 12.9282 6.41428 12.462 6.45282L8.81549 6.75275C8.28148 6.79181 7.77933 7.0216 7.40071 7.40016C7.0221 7.77872 6.79228 8.2808 6.75322 8.81474C6.6501 10.0519 6.52824 11.6265 6.45325 12.4795C6.41471 12.9457 6.23114 13.3882 5.92831 13.7448C5.3565 14.429 4.34411 15.6193 3.53795 16.5566C3.1908 16.961 2.99995 17.4764 2.99995 18.0094C2.99995 18.5423 3.1908 19.0577 3.53795 19.4621L5.92831 22.2739C6.23114 22.6306 6.41471 23.073 6.45325 23.5393C6.52824 24.4765 6.65948 25.9762 6.75322 27.204C6.79657 27.7346 7.02827 28.2322 7.40648 28.6069C7.78468 28.9816 8.28444 29.2087 8.81549 29.2472L12.4807 29.5472C12.947 29.5857 13.3895 29.7692 13.7462 30.072L16.5584 32.4621C16.9629 32.8092 17.4783 33 18.0113 33C18.5444 33 19.0598 32.8092 19.4643 32.4621C20.4017 31.656 21.5922 30.6531 22.2765 30.072C22.6331 29.7692 23.0757 29.5857 23.542 29.5472L27.1884 29.2472C27.7224 29.2082 28.2246 28.9784 28.6032 28.5998C28.9818 28.2213 29.2116 27.7192 29.2507 27.1852C29.3538 25.948 29.4851 24.3734 29.5507 23.5205C29.5892 23.0543 29.7728 22.6118 30.0756 22.2552C30.6568 21.5804 31.6598 20.3807 32.466 19.4434C32.8106 19.0396 33 18.5261 33 17.9953C33 17.4645 32.8106 16.951 32.466 16.5472Z" fill="#66CC00"/>
<path d="M6.58826 20.8907V15.2032H8.16451L10.4395 18.9163H9.61076L11.8208 15.2032H13.397L13.4133 20.8907H11.6664L11.6501 17.8357H11.9264L10.4151 20.3788H9.57013L7.99388 17.8357H8.33513V20.8907H6.58826Z" fill="white"/>
<path d="M13.7228 20.8907L16.2091 15.2032H18.0941L20.5803 20.8907H18.5978L16.7616 16.1132H17.5091L15.6728 20.8907H13.7228ZM15.2016 19.8994L15.6891 18.5182H18.3053L18.7928 19.8994H15.2016Z" fill="white"/>
<path d="M20.8864 20.8907V15.2032H22.8039V20.8907H20.8864Z" fill="white"/>
<path d="M23.7269 20.8907V15.2032H25.3032L28.1957 18.6644H27.4644V15.2032H29.3332V20.8907H27.7569L24.8644 17.4294H25.5957V20.8907H23.7269Z" fill="white"/>
</svg>
