<svg width="20" height="20" viewBox="0 0 20 20" fill="none" xmlns="http://www.w3.org/2000/svg">
<path fill-rule="evenodd" clip-rule="evenodd" d="M16.1561 7.26693C16.5001 7.29618 16.7552 7.59871 16.7259 7.94265L16.1032 7.88968L15.4804 7.83672C15.5097 7.49279 15.8122 7.23768 16.1561 7.26693ZM13.4232 17.678L13.5531 18.2894C13.5102 18.2985 13.4666 18.303 13.4228 18.303L6.91791 18.2989C6.91491 18.299 6.91174 18.2992 6.90842 18.2993C6.88751 18.3003 6.86013 18.3011 6.82712 18.3012C6.76132 18.3013 6.6719 18.2984 6.56583 18.2873C6.356 18.2652 6.06729 18.2093 5.76417 18.0696C5.11835 17.772 4.50211 17.1343 4.3703 15.9408C4.26197 14.9599 4.08277 12.9563 3.93125 11.2058C3.85535 10.3289 3.78616 9.5128 3.73595 8.91597C3.71085 8.61755 3.69048 8.37391 3.67639 8.20486L3.65451 7.94149L4.27735 7.88968L4.90023 7.83823L4.92208 8.10104C4.93614 8.26982 4.95648 8.51313 4.98155 8.81119C5.0317 9.40734 5.1008 10.2224 5.1766 11.0981C5.32849 12.8529 5.50638 14.8405 5.61274 15.8036C5.69563 16.5541 6.03314 16.8172 6.28739 16.9344C6.43431 17.0021 6.58222 17.0321 6.6965 17.0441C6.75249 17.05 6.797 17.0512 6.82461 17.0512C6.83831 17.0511 6.84751 17.0508 6.8515 17.0506M6.85292 17.0506C6.86839 17.0494 6.8839 17.0488 6.89942 17.0489L13.347 17.053C13.3851 17.0426 13.4403 17.0266 13.5072 17.0039C13.6517 16.9549 13.8419 16.8781 14.032 16.7675C14.4242 16.5392 14.7193 16.2287 14.767 15.7976C14.845 15.0927 15.023 13.1075 15.1823 11.2881C15.2618 10.3807 15.3363 9.51779 15.391 8.88174L15.4804 7.83672L16.1032 7.88968L16.7259 7.94265L16.6364 8.98877C16.5817 9.62525 16.5071 10.4888 16.4276 11.3971C16.2689 13.209 16.0894 15.2122 16.0094 15.9351C15.8991 16.9318 15.2117 17.5271 14.6608 17.8478C14.3794 18.0116 14.108 18.12 13.9088 18.1876C13.8082 18.2217 13.7237 18.2462 13.6625 18.2626C13.6318 18.2708 13.6068 18.277 13.5883 18.2814L13.5655 18.2866L13.558 18.2883L13.5552 18.2889L13.554 18.2892C13.554 18.2892 13.5531 18.2894 13.4232 17.678M4.27735 7.88968L4.90023 7.83823C4.87178 7.49422 4.56984 7.23836 4.22583 7.26681C3.88183 7.29527 3.62605 7.59749 3.65451 7.94149L4.27735 7.88968Z" fill="white"/>
<path fill-rule="evenodd" clip-rule="evenodd" d="M2.5 5.19922C2.5 4.85404 2.77982 4.57422 3.125 4.57422H17.2567C17.6018 4.57422 17.8817 4.85404 17.8817 5.19922C17.8817 5.5444 17.6018 5.82422 17.2567 5.82422H3.125C2.77982 5.82422 2.5 5.5444 2.5 5.19922Z" fill="white"/>
<path fill-rule="evenodd" clip-rule="evenodd" d="M6.7909 2.92138C6.98927 2.17949 7.66106 1.66699 8.42553 1.66699H11.953C12.7175 1.66699 13.3893 2.17949 13.5876 2.92138C13.5911 2.93427 13.5941 2.94727 13.5967 2.96035L13.7992 3.97343C13.7992 3.97352 13.7992 3.97335 13.7992 3.97343C13.8692 4.32243 14.1763 4.57449 14.5322 4.57449C14.8774 4.57449 15.1572 4.85431 15.1572 5.19949C15.1572 5.54467 14.8774 5.82449 14.5322 5.82449C13.5798 5.82449 12.7603 5.15143 12.5735 4.21888L12.3757 3.22917C12.3192 3.0442 12.1483 2.91699 11.953 2.91699H8.42553C8.23026 2.91699 8.05932 3.0442 8.00281 3.22917L7.80507 4.21863C7.61832 5.15117 6.79876 5.82449 5.84636 5.82449C5.50118 5.82449 5.22136 5.54467 5.22136 5.19949C5.22136 4.85431 5.50118 4.57449 5.84636 4.57449C6.20221 4.57449 6.5093 4.32268 6.57931 3.97368L6.78181 2.96035C6.78442 2.94727 6.78746 2.93427 6.7909 2.92138Z" fill="white"/>
</svg>
