<svg width="33" height="32" viewBox="0 0 33 32" fill="none" xmlns="http://www.w3.org/2000/svg">
<path d="M24.3633 0H9.23828C4.58584 0 0.800781 3.78506 0.800781 8.4375V23.5625C0.800781 28.2149 4.58584 32 9.23828 32H24.3633C29.0157 32 32.8008 28.2149 32.8008 23.5625V8.4375C32.8008 3.78506 29.0157 0 24.3633 0ZM30.9258 23.5625C30.9258 27.1811 27.9818 30.125 24.3633 30.125H9.23828C5.61972 30.125 2.67578 27.1811 2.67578 23.5625V8.4375C2.67578 4.81894 5.61972 1.875 9.23828 1.875H24.3633C27.9818 1.875 30.9258 4.81894 30.9258 8.4375V23.5625Z" fill="#999B9E"/>
</svg>
