<svg width="24" height="24" viewBox="0 0 24 24" fill="none" xmlns="http://www.w3.org/2000/svg">
<path d="M4.61 1.46C3.63781 1.75752 2.78673 2.35912 2.18191 3.17635C1.57709 3.99358 1.25044 4.9833 1.25 6V6.25H8.45L4.61 1.46Z" fill="#232323"/>
<path d="M16.46 6.27L12.45 1.25H6.35999L10.37 6.26L16.46 6.27Z" fill="#232323"/>
<path d="M18 1.25H14.36L18.36 6.25H22.74V6C22.74 4.74195 22.2409 3.53528 21.3523 2.64477C20.4636 1.75426 19.258 1.25265 18 1.25Z" fill="#232323"/>
<path d="M1.25 7.75V18C1.25 19.2598 1.75044 20.468 2.64124 21.3588C3.53204 22.2496 4.74022 22.75 6 22.75H18C19.2598 22.75 20.468 22.2496 21.3588 21.3588C22.2496 20.468 22.75 19.2598 22.75 18V7.78L1.25 7.75ZM15.5 15.25H12.75V18C12.75 18.1989 12.671 18.3897 12.5303 18.5303C12.3897 18.671 12.1989 18.75 12 18.75C11.8011 18.75 11.6103 18.671 11.4697 18.5303C11.329 18.3897 11.25 18.1989 11.25 18V15.25H8.5C8.30109 15.25 8.11032 15.171 7.96967 15.0303C7.82902 14.8897 7.75 14.6989 7.75 14.5C7.75 14.3011 7.82902 14.1103 7.96967 13.9697C8.11032 13.829 8.30109 13.75 8.5 13.75H11.25V11C11.25 10.8011 11.329 10.6103 11.4697 10.4697C11.6103 10.329 11.8011 10.25 12 10.25C12.1989 10.25 12.3897 10.329 12.5303 10.4697C12.671 10.6103 12.75 10.8011 12.75 11V13.75H15.5C15.6989 13.75 15.8897 13.829 16.0303 13.9697C16.171 14.1103 16.25 14.3011 16.25 14.5C16.25 14.6989 16.171 14.8897 16.0303 15.0303C15.8897 15.171 15.6989 15.25 15.5 15.25Z" fill="#232323"/>
</svg>
