<svg width="24" height="24" viewBox="0 0 24 24" fill="none" xmlns="http://www.w3.org/2000/svg">
<path fill-rule="evenodd" clip-rule="evenodd" d="M5.83978 18.1549C5.61893 18.3864 5.5 18.6569 5.5 19.019C5.5 19.3794 5.61892 19.6473 5.83994 19.8764C6.07884 20.124 6.4646 20.352 7.0251 20.5395C8.1537 20.9169 9.76258 21.057 11.592 21.057C13.4301 21.057 15.0382 20.9118 16.1633 20.5301C16.722 20.3406 17.1063 20.1108 17.3444 19.8616C17.5652 19.6307 17.684 19.3606 17.684 18.999C17.684 18.639 17.5651 18.3708 17.3437 18.1412C17.1046 17.8931 16.7185 17.6647 16.158 17.4767C15.0293 17.0983 13.4205 16.957 11.592 16.957C9.75361 16.957 8.14567 17.103 7.02075 17.4853C6.46223 17.6752 6.07793 17.9054 5.83978 18.1549ZM6.538 16.0652C7.90633 15.6 9.71939 15.457 11.592 15.457C13.4525 15.457 15.2647 15.5952 16.6348 16.0545C17.3236 16.2855 17.9564 16.6154 18.4237 17.1002C18.9088 17.6034 19.184 18.2425 19.184 18.999C19.184 19.7539 18.9113 20.3931 18.4289 20.898C17.9638 21.3846 17.3332 21.7172 16.6452 21.9506C15.2768 22.4147 13.4639 22.557 11.592 22.557C9.73142 22.557 7.9193 22.4201 6.5494 21.962C5.86065 21.7317 5.22779 21.4023 4.76037 20.9178C4.27508 20.4147 4 19.7756 4 19.019C4 18.2641 4.27245 17.6246 4.75462 17.1194C5.21951 16.6322 5.8499 16.2991 6.538 16.0652Z" fill="#232323"/>
<path fill-rule="evenodd" clip-rule="evenodd" d="M11.593 5C9.58502 5 7.95703 6.62744 7.95703 8.635C7.95703 10.6426 9.58502 12.27 11.593 12.27H11.6225C13.621 12.2619 15.2355 10.6358 15.228 8.6378L15.228 8.635C15.228 6.62733 13.5999 5 11.593 5ZM6.45703 8.635C6.45703 5.79856 8.75704 3.5 11.593 3.5C14.4276 3.5 16.7272 5.79784 16.728 8.63346C16.7379 11.4605 14.4533 13.7595 11.6268 13.77L11.624 13.77H11.593C8.75704 13.77 6.45703 11.4714 6.45703 8.635Z" fill="#232323"/>
<path fill-rule="evenodd" clip-rule="evenodd" d="M17.8174 5.2425C17.8844 4.83375 18.2701 4.55673 18.6789 4.62377C20.6025 4.93926 22.0695 6.60755 22.0695 8.61988L22.0695 8.62124C22.0658 10.6629 20.5524 12.3484 18.5869 12.6246C18.1767 12.6822 17.7975 12.3964 17.7398 11.9863C17.6822 11.5761 17.968 11.1968 18.3781 11.1392C19.6144 10.9654 20.5669 9.90326 20.5695 8.6192C20.5692 7.35384 19.6463 6.30248 18.4361 6.104C18.0274 6.03696 17.7504 5.65125 17.8174 5.2425Z" fill="#232323"/>
<path fill-rule="evenodd" clip-rule="evenodd" d="M19.8558 15.6219C19.9169 15.2123 20.2985 14.9296 20.7081 14.9906C21.5243 15.1122 22.3091 15.3266 22.9077 15.7195C23.5441 16.1371 23.9817 16.7708 23.9817 17.6274C23.9817 18.196 23.7872 18.6905 23.4354 19.0882C23.0974 19.4701 22.6441 19.7302 22.164 19.9126C21.7768 20.0596 21.3436 19.865 21.1965 19.4778C21.0495 19.0905 21.2441 18.6574 21.6313 18.5103C21.9752 18.3797 22.1889 18.2332 22.312 18.0942C22.4211 17.9708 22.4817 17.8299 22.4817 17.6274C22.4817 17.3641 22.3777 17.1658 22.0848 16.9736C21.7543 16.7567 21.222 16.5837 20.4872 16.4742C20.0775 16.4132 19.7948 16.0316 19.8558 15.6219Z" fill="#232323"/>
<path fill-rule="evenodd" clip-rule="evenodd" d="M3.04297 1.25C3.45718 1.25 3.79297 1.58579 3.79297 2V6.01C3.79297 6.42421 3.45718 6.76 3.04297 6.76C2.62876 6.76 2.29297 6.42421 2.29297 6.01V2C2.29297 1.58579 2.62876 1.25 3.04297 1.25Z" fill="#232323"/>
<path fill-rule="evenodd" clip-rule="evenodd" d="M0.25 4.00491C0.25 3.5907 0.585786 3.25491 1 3.25491H5.09C5.50421 3.25491 5.84 3.5907 5.84 4.00491C5.84 4.41913 5.50421 4.75491 5.09 4.75491H1C0.585786 4.75491 0.25 4.41913 0.25 4.00491Z" fill="#232323"/>
</svg>
