<svg xmlns="http://www.w3.org/2000/svg" width="24" height="24" viewBox="0 0 24 24" fill="none">
<path fill-rule="evenodd" clip-rule="evenodd" d="M4 11.7256C4 11.3114 4.33579 10.9756 4.75 10.9756H19.75C20.1642 10.9756 20.5 11.3114 20.5 11.7256C20.5 12.1398 20.1642 12.4756 19.75 12.4756L4.75 12.4756C4.33579 12.4756 4 12.1398 4 11.7256Z" fill="white"/>
<path fill-rule="evenodd" clip-rule="evenodd" d="M13.1697 18.2795C12.8775 17.986 12.8784 17.5111 13.1719 17.2188L18.6883 11.7253L13.172 6.23272C12.8785 5.94045 12.8774 5.46558 13.1697 5.17206C13.462 4.87853 13.9368 4.87751 14.2304 5.16977L20.2804 11.1938C20.4217 11.3345 20.5012 11.5258 20.5012 11.7252C20.5012 11.9247 20.4217 12.1159 20.2804 12.2567L14.2304 18.2817C13.9369 18.574 13.462 18.573 13.1697 18.2795Z" fill="white"/>
</svg>