<svg width="24" height="24" viewBox="0 0 24 24" fill="none" xmlns="http://www.w3.org/2000/svg">
<path d="M9.69675 7.96586C9.19465 7.96586 8.78614 8.37434 8.7861 8.8764C8.78607 9.1196 8.88075 9.34826 9.05272 9.52023C9.22468 9.69223 9.4533 9.78691 9.6965 9.78691H9.82608V7.96583L9.69675 7.96586Z" fill="#232323"/>
<path d="M11.135 10.8433H10.8824V12.6544H11.135C11.6344 12.6544 12.0406 12.2482 12.0406 11.7488C12.0406 11.2495 11.6344 10.8433 11.135 10.8433Z" fill="#232323"/>
<path d="M17.1 12.2255C17.2832 12.2255 17.4639 12.2359 17.6419 12.2555C17.7948 11.6573 17.8724 11.0411 17.8724 10.4157C17.8724 6.32668 14.5457 3 10.4566 3C6.36758 3 3.04086 6.32668 3.04086 10.4157C3.04086 14.5048 6.36754 17.8315 10.4566 17.8315C11.0509 17.8315 11.6375 17.7612 12.2083 17.6229C12.1927 17.4643 12.1846 17.3035 12.1846 17.1409C12.1847 14.4306 14.3897 12.2255 17.1 12.2255ZM11.135 13.7107H10.8824V14.7604H9.82608V13.7107H8.70002V12.6544H9.82608V10.8432H9.69651C9.17113 10.8432 8.67724 10.6386 8.30577 10.2671C7.9343 9.8956 7.72976 9.40171 7.7298 8.87633C7.7299 7.79182 8.61224 6.90955 9.69675 6.90955H9.82608V5.85982H10.8824V6.90955H12.7961V7.96586H10.8824V9.78694H11.135C12.2168 9.78694 13.0969 10.667 13.0969 11.7488C13.0969 12.8306 12.2168 13.7107 11.135 13.7107Z" fill="#232323"/>
<path d="M17.1 13.2819C14.9721 13.2819 13.2409 15.0131 13.2409 17.141C13.2409 19.2689 14.9721 21 17.1 21C19.2279 21 20.9591 19.2689 20.9591 17.141C20.9591 15.0131 19.2279 13.2819 17.1 13.2819ZM16.6522 19.081L14.7894 17.4247L15.4913 16.6353L16.6097 17.6296L18.6863 15.5531L19.4332 16.3L16.6522 19.081Z" fill="#232323"/>
</svg>
