<svg width="32" height="32" viewBox="0 0 32 32" fill="none" xmlns="http://www.w3.org/2000/svg">
<g clip-path="url(#clip0_155_3022)">
<path d="M23.5625 0H8.4375C3.78506 0 0 3.78506 0 8.4375V23.5625C0 28.2149 3.78506 32 8.4375 32H23.5625C28.2149 32 32 28.2149 32 23.5625V8.4375C32 3.78506 28.2149 0 23.5625 0ZM30.125 23.5625C30.125 27.1811 27.1811 30.125 23.5625 30.125H8.4375C4.81894 30.125 1.875 27.1811 1.875 23.5625V8.4375C1.875 4.81894 4.81894 1.875 8.4375 1.875H23.5625C27.1811 1.875 30.125 4.81894 30.125 8.4375V23.5625Z" fill="#232323"/>
</g>
<defs>
<clipPath id="clip0_155_3022">
<rect width="32" height="32" fill="white"/>
</clipPath>
</defs>
</svg>
