<svg width="24" height="24" viewBox="0 0 24 24" fill="none" xmlns="http://www.w3.org/2000/svg">
<path d="M21.4322 6.86389C21.3946 6.86262 20.6222 6.837 19.4883 6.86162V4.57785C19.4883 4.24119 19.1957 3.97418 18.8511 4.00199C16.5903 4.18741 13.7138 5.1688 12 6.95881C10.2861 5.1688 7.40967 4.18741 5.14881 4.00199C4.80489 3.97449 4.51164 4.2403 4.51164 4.57785V6.92337C3.8674 6.89949 3.25803 6.88265 2.60568 6.86381C2.27667 6.8536 2 7.11395 2 7.4414V17.965C2 18.2691 2.23988 18.5211 2.54874 18.5415C4.88866 18.6962 8.80821 18.7136 11.7692 19.9542C12.0331 20.065 12.27 19.9378 12.2308 19.9542C15.1917 18.7137 19.1106 18.6963 21.4513 18.5415C21.7601 18.5211 22 18.2691 22 17.965V7.4414C21.9999 7.13009 21.7489 6.87475 21.4322 6.86389ZM18.3118 5.22778V15.1318C16.6155 15.5046 14.4658 16.3 12.5882 17.9866C12.5882 17.4779 12.5882 8.32887 12.5882 8.05374C13.8752 6.47619 16.3127 5.52534 18.3118 5.22778ZM5.6881 5.22778C7.68719 5.52534 10.1247 6.47619 11.4117 8.05374V17.9866C9.53417 16.3 7.38441 15.5046 5.6881 15.1318V5.22778ZM3.17647 17.4212V8.03652C3.59768 8.04877 4.04819 8.0626 4.51164 8.07997V15.6028C4.51164 15.8808 4.7132 16.1194 4.99136 16.1707C6.33453 16.4184 8.08119 16.9559 9.70911 18.1134C7.38657 17.6017 4.95552 17.5195 3.17647 17.4212ZM20.8235 17.4212C19.0473 17.5193 16.6143 17.6015 14.2908 18.1134C15.9187 16.9559 17.6654 16.4184 19.0085 16.1707C19.2867 16.1194 19.4882 15.8808 19.4882 15.6028V8.01772C20.0297 8.00581 20.4908 8.00566 20.8234 8.00863V17.4212H20.8235Z" fill="#232323"/>
<path d="M9.46331 8.8053C8.91658 8.42441 7.97404 7.95688 6.96815 7.7869C6.58392 7.72168 6.21949 7.98092 6.15451 8.3653C6.08957 8.74968 6.34853 9.11396 6.73295 9.1789C7.50957 9.31015 8.25441 9.68366 8.65629 9.96366C8.97606 10.1864 9.41606 10.1079 9.63898 9.78799C9.8618 9.46813 9.78316 9.02813 9.46331 8.8053Z" fill="#232323"/>
<path d="M9.39263 12.7807C8.88962 12.4736 7.90576 11.9346 6.96815 11.7761C6.58392 11.711 6.21949 11.9701 6.15451 12.3545C6.08956 12.739 6.34853 13.1032 6.73295 13.1681C7.46336 13.2916 8.32166 13.7809 8.65677 13.9856C8.9899 14.1889 9.42416 14.0834 9.62712 13.7511C9.83032 13.4184 9.72533 12.984 9.39263 12.7807Z" fill="#232323"/>
<path d="M15.3438 9.96369C15.7457 9.68369 16.4905 9.31019 17.2672 9.17894C17.6515 9.114 17.9105 8.74972 17.8456 8.36534C17.7807 7.98091 17.4162 7.72157 17.032 7.78694C16.0261 7.95687 15.0835 8.42444 14.5368 8.80534C14.2169 9.02816 14.1383 9.46816 14.3611 9.78802C14.5841 10.1081 15.0242 10.1864 15.3438 9.96369Z" fill="#232323"/>
<path d="M17.0321 11.7762C16.0945 11.9346 15.1106 12.4736 14.6076 12.7808C14.2749 12.984 14.1699 13.4185 14.3731 13.7512C14.5763 14.0838 15.0107 14.1888 15.3435 13.9857C15.6786 13.781 16.5369 13.2916 17.2673 13.1682C17.6516 13.1033 17.9106 12.739 17.8457 12.3546C17.7807 11.9702 17.4164 11.7108 17.0321 11.7762Z" fill="#232323"/>
</svg>
