<svg width="24" height="24" viewBox="0 0 24 24" fill="none" xmlns="http://www.w3.org/2000/svg">
<path fill-rule="evenodd" clip-rule="evenodd" d="M2.34375 9.40445C2.34375 8.99024 2.67954 8.65445 3.09375 8.65445H20.9177C21.3319 8.65445 21.6677 8.99024 21.6677 9.40445C21.6677 9.81866 21.3319 10.1544 20.9177 10.1544H3.09375C2.67954 10.1544 2.34375 9.81866 2.34375 9.40445Z" fill="#232323"/>
<path fill-rule="evenodd" clip-rule="evenodd" d="M15.6914 13.3096C15.6914 12.8954 16.0272 12.5596 16.4414 12.5596H16.4507C16.8649 12.5596 17.2007 12.8954 17.2007 13.3096C17.2007 13.7238 16.8649 14.0596 16.4507 14.0596H16.4414C16.0272 14.0596 15.6914 13.7238 15.6914 13.3096Z" fill="#232323"/>
<path fill-rule="evenodd" clip-rule="evenodd" d="M11.2539 13.3096C11.2539 12.8954 11.5897 12.5596 12.0039 12.5596H12.0132C12.4274 12.5596 12.7632 12.8954 12.7632 13.3096C12.7632 13.7238 12.4274 14.0596 12.0132 14.0596H12.0039C11.5897 14.0596 11.2539 13.7238 11.2539 13.3096Z" fill="#232323"/>
<path fill-rule="evenodd" clip-rule="evenodd" d="M6.80664 13.3096C6.80664 12.8954 7.14243 12.5596 7.55664 12.5596H7.5659C7.98012 12.5596 8.3159 12.8954 8.3159 13.3096C8.3159 13.7238 7.98012 14.0596 7.5659 14.0596H7.55664C7.14243 14.0596 6.80664 13.7238 6.80664 13.3096Z" fill="#232323"/>
<path fill-rule="evenodd" clip-rule="evenodd" d="M15.6914 17.1963C15.6914 16.7821 16.0272 16.4463 16.4414 16.4463H16.4507C16.8649 16.4463 17.2007 16.7821 17.2007 17.1963C17.2007 17.6105 16.8649 17.9463 16.4507 17.9463H16.4414C16.0272 17.9463 15.6914 17.6105 15.6914 17.1963Z" fill="#232323"/>
<path fill-rule="evenodd" clip-rule="evenodd" d="M11.2539 17.1963C11.2539 16.7821 11.5897 16.4463 12.0039 16.4463H12.0132C12.4274 16.4463 12.7632 16.7821 12.7632 17.1963C12.7632 17.6105 12.4274 17.9463 12.0132 17.9463H12.0039C11.5897 17.9463 11.2539 17.6105 11.2539 17.1963Z" fill="#232323"/>
<path fill-rule="evenodd" clip-rule="evenodd" d="M6.80664 17.1963C6.80664 16.7821 7.14243 16.4463 7.55664 16.4463H7.5659C7.98012 16.4463 8.3159 16.7821 8.3159 17.1963C8.3159 17.6105 7.98012 17.9463 7.5659 17.9463H7.55664C7.14243 17.9463 6.80664 17.6105 6.80664 17.1963Z" fill="#232323"/>
<path fill-rule="evenodd" clip-rule="evenodd" d="M16.0449 1.25C16.4591 1.25 16.7949 1.58579 16.7949 2V5.29078C16.7949 5.70499 16.4591 6.04078 16.0449 6.04078C15.6307 6.04078 15.2949 5.70499 15.2949 5.29078V2C15.2949 1.58579 15.6307 1.25 16.0449 1.25Z" fill="#232323"/>
<path fill-rule="evenodd" clip-rule="evenodd" d="M7.9668 1.25C8.38101 1.25 8.7168 1.58579 8.7168 2V5.29078C8.7168 5.70499 8.38101 6.04078 7.9668 6.04078C7.55258 6.04078 7.2168 5.70499 7.2168 5.29078V2C7.2168 1.58579 7.55258 1.25 7.9668 1.25Z" fill="#232323"/>
<path fill-rule="evenodd" clip-rule="evenodd" d="M3.76749 4.22946C4.76914 3.27729 6.16751 2.82919 7.77096 2.82919H16.2383C17.8457 2.82919 19.2449 3.27695 20.2448 4.23019C21.2504 5.18876 21.7548 6.56558 21.75 8.22326V17.3475C21.75 19.0052 21.243 20.3835 20.2371 21.3439C19.2366 22.2992 17.8377 22.75 16.229 22.75H7.77096C6.16301 22.75 4.76302 22.2898 3.76225 21.3199C2.75774 20.3463 2.25 18.9508 2.25 17.2719V8.22222C2.25 6.56339 2.76004 5.18715 3.76749 4.22946ZM4.80096 5.31663C4.1571 5.92869 3.75 6.87396 3.75 8.22222V17.2719C3.75 18.6473 4.1594 19.6159 4.8062 20.2428C5.45673 20.8733 6.44222 21.25 7.77096 21.25H16.229C17.5663 21.25 18.5528 20.8781 19.2013 20.259C19.8444 19.6449 20.25 18.6969 20.25 17.3475V8.22222L20.25 8.21991C20.2541 6.87106 19.8507 5.92683 19.2098 5.31591C18.5631 4.69941 17.5768 4.32919 16.2383 4.32919H7.77096C6.43772 4.32919 5.45061 4.69907 4.80096 5.31663Z" fill="#232323"/>
</svg>
