<svg width="24" height="24" viewBox="0 0 24 24" fill="none" xmlns="http://www.w3.org/2000/svg">
<path d="M6.13533 13.0208C5.68003 13.0208 5.23495 13.1558 4.85638 13.4088C4.47781 13.6617 4.18275 14.0213 4.00852 14.4419C3.83428 14.8625 3.78869 15.3254 3.87752 15.772C3.96634 16.2185 4.18559 16.6287 4.50754 16.9506C4.82948 17.2726 5.23967 17.4918 5.68622 17.5807C6.13277 17.6695 6.59564 17.6239 7.01628 17.4497C7.43693 17.2754 7.79646 16.9804 8.04941 16.6018C8.30236 16.2232 8.43737 15.7782 8.43737 15.3229C8.43668 14.7125 8.19392 14.1274 7.76236 13.6958C7.33079 13.2643 6.74566 13.0215 6.13533 13.0208ZM6.13533 16.3853C5.92519 16.3853 5.71977 16.323 5.54504 16.2063C5.37032 16.0895 5.23414 15.9236 5.15372 15.7295C5.07331 15.5353 5.05227 15.3217 5.09326 15.1156C5.13426 14.9095 5.23545 14.7202 5.38404 14.5716C5.53263 14.423 5.72195 14.3218 5.92805 14.2808C6.13415 14.2398 6.34778 14.2608 6.54192 14.3413C6.73607 14.4217 6.902 14.5579 7.01875 14.7326C7.1355 14.9073 7.19781 15.1127 7.19781 15.3229C7.19781 15.6046 7.08587 15.8749 6.88662 16.0741C6.68736 16.2734 6.41712 16.3853 6.13533 16.3853Z" fill="#232323"/>
<path d="M18.8851 13.0208C18.4298 13.0208 17.9847 13.1558 17.6062 13.4088C17.2276 13.6617 16.9325 14.0213 16.7583 14.4419C16.5841 14.8625 16.5385 15.3254 16.6273 15.772C16.7161 16.2185 16.9354 16.6287 17.2573 16.9506C17.5793 17.2726 17.9894 17.4918 18.436 17.5807C18.8825 17.6695 19.3454 17.6239 19.7661 17.4497C20.1867 17.2754 20.5462 16.9804 20.7992 16.6018C21.0521 16.2232 21.1871 15.7782 21.1871 15.3229C21.1865 14.7125 20.9437 14.1274 20.5121 13.6958C20.0806 13.2643 19.4954 13.0215 18.8851 13.0208ZM18.8851 16.3853C18.675 16.3853 18.4695 16.323 18.2948 16.2063C18.1201 16.0895 17.9839 15.9236 17.9035 15.7295C17.8231 15.5353 17.802 15.3217 17.843 15.1156C17.884 14.9095 17.9852 14.7202 18.1338 14.5716C18.2824 14.423 18.4717 14.3218 18.6778 14.2808C18.8839 14.2398 19.0976 14.2608 19.2917 14.3413C19.4858 14.4217 19.6518 14.5579 19.7685 14.7326C19.8853 14.9073 19.9476 15.1127 19.9476 15.3229C19.9476 15.6046 19.8356 15.8749 19.6364 16.0741C19.4371 16.2734 19.1669 16.3853 18.8851 16.3853Z" fill="#232323"/>
<path d="M21.9575 11.1189L17.8226 10.3645L14.3025 7.44381C13.9536 7.15724 13.5162 7.0004 13.0648 7.00001H7.87869C7.58644 6.99931 7.29781 7.06471 7.03441 7.19131C6.771 7.31792 6.53964 7.50244 6.35761 7.73108L4.10918 10.3645H2.59372C2.17119 10.365 1.76609 10.5331 1.46731 10.8318C1.16853 11.1306 1.00047 11.5357 1 11.9583V13.9061C1.00057 14.4226 1.20598 14.9177 1.57116 15.2829C1.93633 15.648 2.43145 15.8534 2.94788 15.854H3.35273C3.27415 15.4442 3.28707 15.0221 3.39056 14.6178C3.49405 14.2136 3.68555 13.8372 3.95139 13.5155C4.21723 13.1939 4.55084 12.9349 4.92837 12.7571C5.3059 12.5794 5.71804 12.4872 6.13533 12.4872C6.55262 12.4872 6.96476 12.5794 7.34229 12.7571C7.71983 12.9349 8.05343 13.1939 8.31927 13.5155C8.58511 13.8372 8.77662 14.2136 8.8801 14.6178C8.98359 15.0221 8.99651 15.4442 8.91793 15.854H16.1025C16.0239 15.4442 16.0369 15.0221 16.1403 14.6178C16.2438 14.2136 16.4353 13.8372 16.7012 13.5155C16.967 13.1939 17.3006 12.9349 17.6782 12.7571C18.0557 12.5794 18.4678 12.4872 18.8851 12.4872C19.3024 12.4872 19.7145 12.5794 20.0921 12.7571C20.4696 12.9349 20.8032 13.1939 21.0691 13.5155C21.3349 13.8372 21.5264 14.2136 21.6299 14.6178C21.7334 15.0221 21.7463 15.4442 21.6677 15.854H21.7184C22.1409 15.8536 22.546 15.6855 22.8448 15.3867C23.1436 15.0879 23.3117 14.6828 23.3121 14.2603V12.6946C23.314 12.3128 23.178 11.9432 22.9292 11.6537C22.6803 11.3642 22.3352 11.1743 21.9575 11.1189ZM8.79154 9.83329C8.79154 9.97419 8.73557 10.1093 8.63594 10.2089C8.53631 10.3086 8.40119 10.3645 8.2603 10.3645H5.92483C5.87404 10.3646 5.82431 10.35 5.78152 10.3227C5.73874 10.2953 5.70471 10.2562 5.68345 10.2101C5.66219 10.164 5.6546 10.1127 5.66158 10.0624C5.66855 10.0121 5.68981 9.96485 5.72282 9.92626L7.26856 8.11561C7.31846 8.05727 7.38042 8.01043 7.45017 7.97833C7.51991 7.94623 7.59579 7.92963 7.67257 7.92968H8.2603C8.40119 7.92968 8.53631 7.98565 8.63594 8.08527C8.73557 8.1849 8.79154 8.32002 8.79154 8.46092V9.83329ZM11.4477 12.3124H10.7394C10.5985 12.3124 10.4634 12.2564 10.3638 12.1568C10.2641 12.0572 10.2082 11.9221 10.2082 11.7812C10.2082 11.6403 10.2641 11.5052 10.3638 11.4055C10.4634 11.3059 10.5985 11.2499 10.7394 11.2499H11.4477C11.5886 11.2499 11.7238 11.3059 11.8234 11.4055C11.923 11.5052 11.979 11.6403 11.979 11.7812C11.979 11.9221 11.923 12.0572 11.8234 12.1568C11.7238 12.2564 11.5886 12.3124 11.4477 12.3124ZM15.6303 10.3775L10.5611 10.3658C10.4204 10.3654 10.2856 10.3093 10.1863 10.2097C10.0869 10.1101 10.0311 9.97521 10.0311 9.83453V8.46092C10.0311 8.32002 10.0871 8.1849 10.1867 8.08527C10.2863 7.98565 10.4214 7.92968 10.5623 7.92968H13.11C13.2294 7.92969 13.3453 7.96992 13.4391 8.04389L15.7955 9.90324C15.8389 9.93744 15.8706 9.98434 15.8861 10.0374C15.9016 10.0905 15.9002 10.1471 15.882 10.1993C15.8638 10.2515 15.8298 10.2967 15.7847 10.3287C15.7396 10.3606 15.6856 10.3777 15.6303 10.3775Z" fill="#232323"/>
</svg>
