<svg width="24" height="24" viewBox="0 0 24 24" fill="none" xmlns="http://www.w3.org/2000/svg">
<path fill-rule="evenodd" clip-rule="evenodd" d="M5.75199 6.41597L7.95974 4.20822L5.75199 2L3.54343 4.20822L5.75199 6.41597ZM9.10323 19.091H20.4648V20.4793H9.10323V19.091ZM5.75199 21.9928L7.95974 19.7851L5.75199 17.5769L3.54343 19.7851L5.75199 21.9928ZM9.10323 13.8991H17.6017V15.2878H9.10323V13.8991ZM5.75199 16.8012L7.95974 14.5934L5.75199 12.3848L3.54343 14.5934L5.75199 16.8012ZM9.10323 8.70527H20.4648V10.0933H9.10323V8.70527ZM5.75199 11.6073L7.95974 9.39957L5.75199 7.191L3.54343 9.39957L5.75199 11.6073ZM9.10323 3.51358H17.6017V4.90191H9.10323V3.51358Z" fill="black"/>
</svg>
