<svg width="24" height="24" viewBox="0 0 24 24" fill="none" xmlns="http://www.w3.org/2000/svg">
<path d="M4 3L4.83 3.61L6 15.5C6.077 16.437 6.71674 16.736 8 16.736H18.502C19.399 16.738 20.16 16.078 20.287 15.19L21.236 8.632C21.342 7.899 20.833 7.219 20.101 7.113C20.037 7.104 5.19816 7.35137 5.19816 7.35137" stroke="#232323" stroke-width="1.5" stroke-linecap="round" stroke-linejoin="round"/>
<path d="M14.125 10.7949H16.898" stroke="#232323" stroke-width="1.5" stroke-linecap="round" stroke-linejoin="round"/>
<path fill-rule="evenodd" clip-rule="evenodd" d="M7.15338 20.2026C7.45438 20.2026 7.69738 20.4466 7.69738 20.7466C7.69738 21.0476 7.45438 21.2916 7.15338 21.2916C6.85238 21.2916 6.60938 21.0476 6.60938 20.7466C6.60938 20.4466 6.85238 20.2026 7.15338 20.2026Z" fill="#232323" stroke="#232323" stroke-width="1.5" stroke-linecap="round" stroke-linejoin="round"/>
<path fill-rule="evenodd" clip-rule="evenodd" d="M18.4346 20.2026C18.7356 20.2026 18.9796 20.4466 18.9796 20.7466C18.9796 21.0476 18.7356 21.2916 18.4346 21.2916C18.1336 21.2916 17.8906 21.0476 17.8906 20.7466C17.8906 20.4466 18.1336 20.2026 18.4346 20.2026Z" fill="#232323" stroke="#232323" stroke-width="1.5" stroke-linecap="round" stroke-linejoin="round"/>
</svg>
