<svg width="24" height="24" viewBox="0 0 24 24" fill="none" xmlns="http://www.w3.org/2000/svg">
<path fill-rule="evenodd" clip-rule="evenodd" d="M19.3874 8.72051C19.8001 8.75561 20.1062 9.11865 20.0711 9.53137L19.3238 9.46782L18.5765 9.40426C18.6116 8.99154 18.9747 8.68541 19.3874 8.72051ZM16.1078 21.2138L16.2637 21.9474C16.2123 21.9584 16.1599 21.9639 16.1073 21.9638L8.30149 21.9588C8.29789 21.959 8.29409 21.9592 8.2901 21.9594C8.26501 21.9605 8.23215 21.9615 8.19255 21.9616C8.11358 21.9618 8.00628 21.9583 7.87899 21.9449C7.6272 21.9185 7.28075 21.8514 6.917 21.6837C6.14202 21.3265 5.40253 20.5613 5.24436 19.1291C5.11436 17.9521 4.89932 15.5477 4.71751 13.4472C4.62642 12.3949 4.54339 11.4156 4.48314 10.6994C4.45302 10.3413 4.42858 10.0489 4.41167 9.84602L4.38541 9.52998L5.13283 9.46782L5.88028 9.40607L5.90649 9.72145C5.92337 9.92397 5.94777 10.2159 5.97786 10.5736C6.03804 11.289 6.12096 12.2671 6.21192 13.3179C6.39419 15.4237 6.60765 17.8088 6.73529 18.9645C6.83476 19.8651 7.23977 20.1808 7.54487 20.3215C7.72118 20.4027 7.89867 20.4387 8.0358 20.4532C8.10298 20.4602 8.15639 20.4617 8.18953 20.4616C8.20597 20.4616 8.21701 20.4612 8.2218 20.4609M8.22351 20.4609C8.24207 20.4595 8.26068 20.4588 8.2793 20.4588L16.0164 20.4638C16.0622 20.4514 16.1283 20.4321 16.2087 20.4048C16.382 20.346 16.6103 20.2539 16.8384 20.1211C17.309 19.8472 17.6631 19.4746 17.7204 18.9573C17.814 18.1114 18.0276 15.7292 18.2188 13.5459C18.3142 12.457 18.4036 11.4215 18.4692 10.6583L18.5765 9.40426L19.3238 9.46782L20.0711 9.53137L19.9637 10.7867C19.898 11.5505 19.8085 12.5868 19.7131 13.6767C19.5227 15.851 19.3073 18.2549 19.2113 19.1223C19.0789 20.3184 18.254 21.0328 17.593 21.4175C17.2553 21.6141 16.9296 21.7442 16.6905 21.8253C16.5699 21.8662 16.4685 21.8956 16.395 21.9153C16.3582 21.9251 16.3281 21.9325 16.3059 21.9378L16.2786 21.9442L16.2695 21.9462L16.2662 21.9469L16.2648 21.9472C16.2648 21.9472 16.2637 21.9474 16.1078 21.2138M5.13283 9.46782L5.88028 9.40607C5.84613 8.99327 5.48381 8.68622 5.071 8.72037C4.6582 8.75451 4.35126 9.11718 4.38541 9.52998L5.13283 9.46782Z" fill="#1C1D1F"/>
<path fill-rule="evenodd" clip-rule="evenodd" d="M3 6.23926C3 5.82504 3.33579 5.48926 3.75 5.48926H20.708C21.1222 5.48926 21.458 5.82504 21.458 6.23926C21.458 6.65347 21.1222 6.98926 20.708 6.98926H3.75C3.33579 6.98926 3 6.65347 3 6.23926Z" fill="#1C1D1F"/>
<path fill-rule="evenodd" clip-rule="evenodd" d="M8.14908 3.50576C8.38712 2.61549 9.19326 2.00049 10.1106 2.00049H14.3436C15.261 2.00049 16.0671 2.61549 16.3052 3.50576C16.3093 3.52122 16.3129 3.53682 16.3161 3.55252L16.559 4.76822C16.559 4.76832 16.559 4.76812 16.559 4.76822C16.643 5.18701 17.0116 5.48949 17.4386 5.48949C17.8528 5.48949 18.1886 5.82527 18.1886 6.23949C18.1886 6.6537 17.8528 6.98949 17.4386 6.98949C16.2957 6.98949 15.3123 6.18181 15.0882 5.06276L14.8509 3.8751C14.7831 3.65314 14.5779 3.50049 14.3436 3.50049H10.1106C9.87631 3.50049 9.67118 3.65314 9.60336 3.8751L9.36608 5.06246C9.14198 6.18151 8.15851 6.98949 7.01562 6.98949C6.60141 6.98949 6.26562 6.6537 6.26562 6.23949C6.26562 5.82527 6.60141 5.48949 7.01562 5.48949C7.44264 5.48949 7.81115 5.18731 7.89517 4.76852L8.13817 3.55252C8.1413 3.53682 8.14494 3.52122 8.14908 3.50576Z" fill="#1C1D1F"/>
</svg>
