<svg width="24" height="24" viewBox="0 0 24 24" fill="none" xmlns="http://www.w3.org/2000/svg">
<path d="M7.89844 5.51562C4.66242 5.51562 2 8.13898 2 11.375C2 14.611 4.66242 17.2344 7.89844 17.2344C11.1345 17.2344 13.7578 14.611 13.7578 11.375C13.7578 8.13898 11.1345 5.51562 7.89844 5.51562ZM9.65625 9.61719H7.89844C7.57516 9.61719 7.3125 9.87984 7.3125 10.2031C7.3125 10.5264 7.57516 10.7891 7.89844 10.7891C8.86773 10.7891 9.65625 11.5776 9.65625 12.5469C9.65625 13.3098 9.16492 13.9541 8.48438 14.1968V15.4766H7.3125V14.3047H6.14062V13.1328H7.89844C8.22172 13.1328 8.48438 12.8702 8.48438 12.5469C8.48438 12.2236 8.22172 11.9609 7.89844 11.9609C6.92914 11.9609 6.14062 11.1724 6.14062 10.2031C6.14062 9.44023 6.63195 8.79594 7.3125 8.55324V7.27344H8.48438V8.44531H9.65625V9.61719Z" fill="#232323"/>
<path d="M14.9297 14.7848V22H17.2734V14.7848C16.8914 14.8493 16.5016 14.8906 16.1016 14.8906C15.7015 14.8906 15.3117 14.8493 14.9297 14.7848Z" fill="#232323"/>
<path d="M16.1016 2C13.8832 2 11.9761 3.24734 10.9813 5.06531C12.8031 5.95918 14.18 7.61441 14.6983 9.61719H16.1016C16.4248 9.61719 16.6875 9.35453 16.6875 9.03125C16.6875 8.70797 16.4248 8.44531 16.1016 8.44531C15.1323 8.44531 14.3437 7.6568 14.3437 6.6875C14.3437 5.92461 14.8351 5.28031 15.5156 5.03762V3.75781H16.6875V4.92969H17.8594V6.10156H16.1016C15.7783 6.10156 15.5156 6.36422 15.5156 6.6875C15.5156 7.01078 15.7783 7.27344 16.1016 7.27344C17.0709 7.27344 17.8594 8.06195 17.8594 9.03125C17.8594 9.79414 17.368 10.4384 16.6875 10.6811V11.9609H15.5156V10.7891H14.9C14.9161 10.9827 14.9297 11.1772 14.9297 11.375C14.9297 12.1157 14.8129 12.8292 14.5997 13.5001C15.0818 13.6285 15.579 13.7188 16.1016 13.7188C19.3376 13.7188 22 11.0954 22 7.85938C22 4.62336 19.3376 2 16.1016 2Z" fill="#232323"/>
<path d="M6.72656 18.3004V22H9.07031V18.3004C8.68828 18.3649 8.29848 18.4063 7.89844 18.4063C7.4984 18.4063 7.10859 18.3649 6.72656 18.3004Z" fill="#232323"/>
</svg>
