<svg width="24" height="24" viewBox="0 0 24 24" fill="none" xmlns="http://www.w3.org/2000/svg">
<path d="M21.1 2.9C20.8209 2.6173 20.4885 2.39284 20.122 2.23964C19.7555 2.08644 19.3622 2.00755 18.965 2.00755C18.5678 2.00755 18.1745 2.08644 17.808 2.23964C17.4415 2.39284 17.1091 2.6173 16.83 2.9L14.91 4.85L19.15 9.09L21.07 7.17C21.3547 6.89293 21.5815 6.56208 21.7372 6.19666C21.893 5.83123 21.9747 5.43851 21.9775 5.04127C21.9803 4.64404 21.9041 4.2502 21.7535 3.88262C21.6029 3.51505 21.3807 3.18104 21.1 2.9Z" fill="#232323"/>
<path d="M13.49 6.27L5.1 14.66C5.02478 14.7373 4.96082 14.8249 4.91 14.92L2.13 20.53C2.04935 20.6814 2.00901 20.8511 2.01287 21.0226C2.01673 21.1941 2.06466 21.3618 2.15204 21.5094C2.23943 21.657 2.36332 21.7797 2.51183 21.8656C2.66033 21.9516 2.82844 21.9978 3 22C3.15237 22.0006 3.30286 21.9664 3.44 21.9L9.05 19.12C9.14515 19.0692 9.23267 19.0052 9.31 18.93L17.7 10.54L13.49 6.27Z" fill="#232323"/>
<path d="M21 22H12C11.7348 22 11.4804 21.8946 11.2929 21.7071C11.1054 21.5196 11 21.2652 11 21C11 20.7348 11.1054 20.4804 11.2929 20.2929C11.4804 20.1054 11.7348 20 12 20H21C21.2652 20 21.5196 20.1054 21.7071 20.2929C21.8946 20.4804 22 20.7348 22 21C22 21.2652 21.8946 21.5196 21.7071 21.7071C21.5196 21.8946 21.2652 22 21 22Z" fill="#232323"/>
</svg>
