<svg width="32" height="32" viewBox="0 0 32 32" fill="none" xmlns="http://www.w3.org/2000/svg">
<path d="M22.75 30.4499C21.4844 30.4483 20.2326 30.1746 19.0716 29.6454C17.9107 29.1163 16.8653 28.3431 16 27.3734C14.7318 28.7945 13.0861 29.7825 11.2764 30.2092C9.46673 30.6358 7.57669 30.4814 5.85166 29.7659C4.12663 29.0505 2.64627 27.807 1.60276 26.197C0.55925 24.587 0.000791084 22.6848 -0.00012207 20.7373C-0.00012207 11.0668 14.855 1.57473 15.5 1.20198C15.6555 1.10387 15.8335 1.05203 16.015 1.05203C16.1964 1.05203 16.3744 1.10387 16.53 1.20198C17.145 1.57473 32 11.0668 32 20.7373C31.9974 23.3124 31.022 25.7812 29.2878 27.6021C27.5537 29.4229 25.2025 30.4471 22.75 30.4499ZM16 3.33874C13.4149 5.07125 1.99989 13.1668 1.99989 20.7373C2.00117 22.3544 2.49282 23.929 3.40357 25.2329C4.31433 26.5369 5.59687 27.5025 7.06533 27.9897C8.53379 28.477 10.1119 28.4606 11.5709 27.9429C13.0299 27.4253 14.294 26.4332 15.18 25.1106C15.2723 24.973 15.3947 24.8608 15.537 24.7833C15.6793 24.7058 15.8372 24.6653 15.9975 24.6653C16.1577 24.6653 16.3157 24.7058 16.4579 24.7833C16.6002 24.8608 16.7227 24.973 16.815 25.1106C17.7002 26.4355 18.9646 27.4297 20.4246 27.9488C21.8845 28.4679 23.464 28.485 24.9338 27.9974C26.4036 27.5099 27.6872 26.5433 28.5982 25.2377C29.5092 23.9322 30.0003 22.3558 30 20.7373C30 13.172 18.585 5.0765 16 3.33874Z" fill="#232323"/>
</svg>
