<svg width="24" height="24" viewBox="0 0 24 24" fill="none" xmlns="http://www.w3.org/2000/svg">
<path fill-rule="evenodd" clip-rule="evenodd" d="M11.9996 8.19351L10.1808 5.6959C9.37565 4.59015 8.08744 3.88159 6.63579 3.88159C5.20827 3.88159 4.14053 4.28414 3.45496 4.90563C2.80667 5.49333 2.25 6.50124 2.25 8.26734C2.25 9.18234 2.70407 10.3979 3.72286 11.8645C4.71434 13.2919 6.08013 14.7279 7.5148 16.0344C8.93933 17.3317 10.3734 18.4488 11.4565 19.2442C11.6423 19.3806 11.8173 19.5072 11.9795 19.6232C12.1466 19.5003 12.3273 19.3659 12.5196 19.2208C13.6059 18.4012 15.0446 17.2546 16.4741 15.9356C17.9138 14.6071 19.2859 13.157 20.2822 11.7349C21.3134 10.2628 21.75 9.09121 21.75 8.2674C21.75 5.84587 19.786 3.88159 17.3636 3.88159C15.9125 3.88159 14.6239 4.59016 13.8185 5.69601L11.9996 8.19351ZM10.3749 2.79035C9.31097 2.05997 8.02433 1.63159 6.63579 1.63159C2.9715 1.63159 0 3.70515 0 8.26734C0 14.6141 11.9997 22.3685 11.9997 22.3685C11.9997 22.3685 24 14.3241 24 8.2674C24 4.6031 21.0286 1.63159 17.3636 1.63159C15.9753 1.63159 14.6886 2.06 13.6246 2.79043C12.9973 3.22107 12.4474 3.7567 11.9997 4.37142C11.552 3.75666 11.0022 3.22101 10.3749 2.79035Z" fill="#232323"/>
</svg>
