<svg width="24" height="24" viewBox="0 0 24 24" fill="none" xmlns="http://www.w3.org/2000/svg">
<g clip-path="url(#clip0_214_5192)">
<path d="M11.9933 3.16368C6.76205 -1.41181 0.110575 2.60835 0.00150512 8.05832C-0.0262896 9.44726 0.374649 10.8002 1.17273 12.0475H6.34565L7.26573 10.514C7.5329 10.0687 8.17945 10.0544 8.46175 10.4983L10.403 13.5488L13.2328 7.57498C13.4796 7.05373 14.215 7.03718 14.4872 7.54264L16.9129 12.0475H22.8139C27.1852 5.21552 18.546 -2.56752 11.9933 3.16368Z" fill="#232323"/>
<path d="M15.8743 13.6839L13.9087 10.0335L11.1291 15.9013C10.8927 16.4005 10.1971 16.4439 9.90059 15.9778L7.88652 12.8129L7.34689 13.7123C7.21983 13.924 6.991 14.0536 6.74403 14.0536H2.28525C2.42502 14.1999 1.68009 13.4565 11.4977 23.2232C11.7719 23.4961 12.2152 23.4961 12.4894 23.2232C22.156 13.6067 21.5624 14.1996 21.7019 14.0536H16.4933C16.2346 14.0536 15.9969 13.9116 15.8743 13.6839Z" fill="#232323"/>
</g>
<defs>
<clipPath id="clip0_214_5192">
<rect width="24" height="24" fill="white"/>
</clipPath>
</defs>
</svg>
