<svg width="24" height="24" viewBox="0 0 24 24" fill="none" xmlns="http://www.w3.org/2000/svg">
<g clip-path="url(#clip0_214_5194)">
<path fill-rule="evenodd" clip-rule="evenodd" d="M17.5713 0C18.9628 2.14838 18.5089 4.72047 18.3273 5.74903L18.3268 5.7519C21.4444 5.7519 23.9754 7.55901 23.9997 11.5332C23.9999 11.5526 24 11.5719 24 11.5913C24 11.6235 23.9996 11.6557 23.9989 11.6881C23.8818 17.2548 13.7411 24 13.7411 24C13.7411 24 13.741 23.9999 13.7409 23.9998C13.7408 23.9999 13.7407 24 13.7407 24C13.7407 24 12.1371 22.9334 10.198 21.2983C7.25296 21.9449 3.60463 20.4134 2.60635 19.5123L2.08913 20.0702L0 17.203L3.83008 18.2782L3.1337 18.995C4.02675 19.9163 6.88781 20.0002 8.46305 19.7502C5.97816 17.3944 3.53968 14.401 3.48291 11.6876C3.48217 11.6554 3.4818 11.6233 3.4818 11.5913C3.4818 11.572 3.48189 11.5527 3.48208 11.5335C3.50634 7.5591 6.03736 5.7519 9.15498 5.7519L9.15447 5.74903C8.97295 4.72046 8.51902 2.14838 9.91048 0C9.60632 1.03288 10.2586 4.65885 11.7884 6.42109C12.5616 6.84098 13.2293 7.43962 13.7409 8.1626C14.2525 7.43962 14.9202 6.84098 15.6934 6.42109C17.2232 4.65885 17.8755 1.03288 17.5713 0Z" fill="#232323"/>
</g>
<defs>
<clipPath id="clip0_214_5194">
<rect width="24" height="24" fill="white"/>
</clipPath>
</defs>
</svg>
