<svg width="24" height="24" viewBox="0 0 24 24" fill="none" xmlns="http://www.w3.org/2000/svg">
<path fill-rule="evenodd" clip-rule="evenodd" d="M3.526 3.6865C4.53348 2.60562 5.96871 2 7.665 2H16.334C18.0343 2 19.4701 2.6053 20.4771 3.68678C21.4785 4.76222 22 6.2476 22 7.916V16.084C22 17.7524 21.4785 19.2378 20.477 20.3133C19.4698 21.3948 18.0337 22 16.333 22H7.665C5.9647 22 4.52906 21.3947 3.52228 20.3131C2.52115 19.2377 2 17.7523 2 16.084V7.916C2 6.24677 2.52396 4.76152 3.526 3.6865ZM4.62325 4.70925C3.92304 5.46048 3.5 6.55823 3.5 7.916V16.084C3.5 17.4427 3.92135 18.5403 4.62022 19.2911C5.31344 20.0358 6.3353 20.5 7.665 20.5H16.333C17.6633 20.5 18.6857 20.0357 19.3793 19.291C20.0785 18.5402 20.5 17.4426 20.5 16.084V7.916C20.5 6.5574 20.0785 5.45978 19.3794 4.70897C18.6859 3.9642 17.6637 3.5 16.334 3.5H7.665C6.34029 3.5 5.31802 3.96388 4.62325 4.70925Z" fill="#1C1D1F"/>
<path fill-rule="evenodd" clip-rule="evenodd" d="M11.9961 11.25C12.4103 11.25 12.7461 11.5858 12.7461 12V16C12.7461 16.4142 12.4103 16.75 11.9961 16.75C11.5819 16.75 11.2461 16.4142 11.2461 16V12C11.2461 11.5858 11.5819 11.25 11.9961 11.25Z" fill="#1C1D1F"/>
<path fill-rule="evenodd" clip-rule="evenodd" d="M10.9902 8.2041C10.9902 7.65182 11.4379 7.2041 11.9902 7.2041H12.0002C12.5525 7.2041 13.0002 7.65182 13.0002 8.2041C13.0002 8.75639 12.5525 9.2041 12.0002 9.2041H11.9902C11.4379 9.2041 10.9902 8.75639 10.9902 8.2041Z" fill="#1C1D1F"/>
</svg>
