<svg width="24" height="24" viewBox="0 0 24 24" fill="none" xmlns="http://www.w3.org/2000/svg">
<path d="M20.4 16.9473H18.0491V14.6018C18.0491 14.523 18.0336 14.445 18.0034 14.3722C17.9733 14.2994 17.9291 14.2333 17.8734 14.1776C17.8176 14.1218 17.7515 14.0776 17.6787 14.0475C17.6059 14.0173 17.5279 14.0018 17.4491 14.0018H16.5491C16.39 14.0018 16.2374 14.065 16.1248 14.1776C16.0123 14.2901 15.9491 14.4427 15.9491 14.6018V16.9473H13.5982C13.4386 16.9487 13.286 17.0131 13.1736 17.1265C13.0612 17.2399 12.9982 17.3931 12.9982 17.5527V18.4473C12.9982 18.5261 13.0137 18.6041 13.0439 18.6769C13.074 18.7497 13.1182 18.8158 13.1739 18.8715C13.2296 18.9272 13.2958 18.9714 13.3686 19.0016C13.4414 19.0318 13.5194 19.0473 13.5982 19.0473H15.9491V21.3982C15.9491 21.5573 16.0123 21.7099 16.1248 21.8224C16.2374 21.935 16.39 21.9982 16.5491 21.9982H17.4545C17.6137 21.9982 17.7663 21.935 17.8788 21.8224C17.9913 21.7099 18.0545 21.5573 18.0545 21.3982V19.0473H20.4C20.479 19.048 20.5573 19.033 20.6305 19.0031C20.7036 18.9732 20.77 18.929 20.8259 18.8732C20.8818 18.8173 20.9259 18.7509 20.9558 18.6777C20.9857 18.6046 21.0007 18.5263 21 18.4473V17.5527C21 17.3931 20.937 17.2399 20.8246 17.1265C20.7122 17.0131 20.5596 16.9487 20.4 16.9473Z" fill="#232323"/>
<path d="M11.4545 18.1091C11.4581 17.6173 11.5798 17.1336 11.8096 16.6988C12.0393 16.264 12.3703 15.8909 12.7745 15.6109C13.1396 15.4193 13.5168 15.2516 13.9036 15.1091C14.2482 14.9232 14.5208 14.6276 14.6782 14.2691C14.7513 14.0849 14.7796 13.8859 14.7606 13.6886C14.7416 13.4914 14.676 13.3014 14.5691 13.1345C14.5145 13.0473 14.2582 12.5455 14.3836 12.4691C15.3114 11.9599 16.0433 11.1565 16.4642 10.1855C16.885 9.2145 16.9707 8.13106 16.7079 7.10593C16.4451 6.0808 15.8487 5.17226 15.0126 4.52348C14.1765 3.8747 13.1483 3.52257 12.09 3.52257C11.0317 3.52257 10.0035 3.8747 9.16742 4.52348C8.33133 5.17226 7.73488 6.0808 7.47207 7.10593C7.20926 8.13106 7.29502 9.2145 7.71584 10.1855C8.13666 11.1565 8.86861 11.9599 9.79636 12.4691C9.80481 12.7161 9.73353 12.9593 9.59305 13.1626C9.45258 13.3659 9.25037 13.5187 9.01636 13.5982C6.51818 14.4982 4.65273 16.3255 4.65273 18.3764V19.5C4.65273 19.7647 4.75789 20.0186 4.94509 20.2058C5.13228 20.393 5.38617 20.4982 5.65091 20.4982H10.8436C10.9934 20.496 11.1403 20.457 11.2713 20.3845C11.4024 20.3121 11.5135 20.2084 11.595 20.0828C11.6764 19.9571 11.7256 19.8133 11.7382 19.6641C11.7508 19.5148 11.7265 19.3648 11.6673 19.2273C11.5257 18.8715 11.4534 18.492 11.4545 18.1091Z" fill="#232323"/>
</svg>
