<svg width="24" height="24" viewBox="0 0 24 24" fill="none" xmlns="http://www.w3.org/2000/svg">
<path d="M18.375 9.75H17.25V8.24999C17.25 5.35512 14.8949 3 12 3C9.10509 3 6.75001 5.35512 6.75001 8.24999V9.75H5.62501C5.41773 9.75 5.25 9.91773 5.25 10.125V19.5C5.25 20.3273 5.92271 21 6.75001 21H17.25C18.0773 21 18.75 20.3273 18.75 19.5V10.125C18.75 9.91773 18.5823 9.75 18.375 9.75ZM13.1228 17.5836C13.1345 17.6894 13.1005 17.7956 13.0294 17.8751C12.9584 17.9546 12.8566 18 12.75 18H11.25C11.1435 18 11.0416 17.9546 10.9706 17.8751C10.8995 17.7957 10.8655 17.6895 10.8772 17.5836L11.1138 15.4563C10.7296 15.1769 10.5 14.7349 10.5 14.25C10.5 13.4227 11.1727 12.75 12 12.75C12.8273 12.75 13.5 13.4227 13.5 14.25C13.5 14.7349 13.2704 15.1769 12.8863 15.4563L13.1228 17.5836ZM15 9.75H9.00001V8.24999C9.00001 6.59582 10.3458 5.25 12 5.25C13.6542 5.25 15 6.59582 15 8.24999V9.75V9.75Z" fill="#343434"/>
</svg>
