<svg width="24" height="24" viewBox="0 0 24 24" fill="none" xmlns="http://www.w3.org/2000/svg">
<path d="M17 4.5H6" stroke="#1C1D1F" stroke-linecap="round" stroke-linejoin="round"/>
<path fill-rule="evenodd" clip-rule="evenodd" d="M5.5 6.5C5.5 6.22386 5.72386 6 6 6H10C10.2761 6 10.5 6.22386 10.5 6.5C10.5 6.77614 10.2761 7 10 7H6C5.72386 7 5.5 6.77614 5.5 6.5Z" fill="#1C1D1F"/>
<path fill-rule="evenodd" clip-rule="evenodd" d="M4.5 20.5C4.5 20.2239 4.72386 20 5 20H9C9.27614 20 9.5 20.2239 9.5 20.5C9.5 20.7761 9.27614 21 9 21H5C4.72386 21 4.5 20.7761 4.5 20.5Z" fill="#232323"/>
<path fill-rule="evenodd" clip-rule="evenodd" d="M4.5 18.5C4.5 18.2239 4.72386 18 5 18H17C17.2761 18 17.5 18.2239 17.5 18.5C17.5 18.7761 17.2761 19 17 19H5C4.72386 19 4.5 18.7761 4.5 18.5Z" fill="#232323"/>
<path fill-rule="evenodd" clip-rule="evenodd" d="M20 5H4V16H20V5ZM3 4V17H21V4H3Z" fill="#232323"/>
<path fill-rule="evenodd" clip-rule="evenodd" d="M21 2.25C21.4142 2.25 21.75 2.58579 21.75 3V21C21.75 21.4142 21.4142 21.75 21 21.75C20.5858 21.75 20.25 21.4142 20.25 21V3C20.25 2.58579 20.5858 2.25 21 2.25Z" fill="#232323"/>
<path fill-rule="evenodd" clip-rule="evenodd" d="M3 2.25C3.41421 2.25 3.75 2.58579 3.75 3V21C3.75 21.4142 3.41421 21.75 3 21.75C2.58579 21.75 2.25 21.4142 2.25 21V3C2.25 2.58579 2.58579 2.25 3 2.25Z" fill="#232323"/>
<path fill-rule="evenodd" clip-rule="evenodd" d="M10.5554 15.3333H13.4443C14.5744 15.3333 15.3333 14.5406 15.3333 13.3611V10.6389C15.3333 9.45936 14.5744 8.66666 13.4446 8.66666H10.5554C9.42562 8.66666 8.66666 9.45936 8.66666 10.6389V13.3611C8.66666 14.5406 9.42562 15.3333 10.5554 15.3333ZM10.8329 11.6667C10.3734 11.6667 9.99999 11.2927 9.99999 10.8333C9.99999 10.3739 10.3734 9.99999 10.8329 9.99999C11.2922 9.99999 11.6659 10.3739 11.6659 10.8333C11.6659 11.2927 11.2922 11.6667 10.8329 11.6667ZM14.6069 12.978C14.7185 13.2642 14.6606 13.6082 14.5412 13.8916C14.3998 14.2287 14.1289 14.484 13.7877 14.5954C13.6362 14.645 13.4773 14.6667 13.3188 14.6667H10.5095C10.23 14.6667 9.98262 14.5996 9.77982 14.4747C9.65279 14.3963 9.63033 14.2153 9.72452 14.098C9.88206 13.902 10.0376 13.7052 10.1945 13.5067C10.4934 13.1269 10.6949 13.0168 10.9188 13.1135C11.0096 13.1534 11.1008 13.2133 11.1947 13.2766C11.4447 13.4465 11.7923 13.6801 12.2502 13.4265C12.5635 13.2511 12.7453 12.95 12.9035 12.6879L12.9062 12.6835L12.9396 12.6284L12.9396 12.6284C12.9928 12.5404 13.0452 12.4536 13.1046 12.3736C13.179 12.2735 13.4549 11.9604 13.8122 12.1833C14.0398 12.3237 14.2312 12.5136 14.436 12.7169C14.5141 12.7946 14.5697 12.883 14.6069 12.978Z" fill="#232323"/>
<path d="M17 5.5H5" stroke="white" stroke-linecap="round" stroke-linejoin="round"/>
</svg>
