<svg width="24" height="24" viewBox="0 0 24 24" fill="none" xmlns="http://www.w3.org/2000/svg">
<path d="M13.9296 6.90838L15.3 7.92221C15.4543 8.03631 15.3763 8.28881 15.1813 8.29002L14.7512 8.29264C14.7508 8.29264 14.7504 8.29264 14.75 8.29264C14.6393 8.29264 14.549 8.20311 14.5483 8.09248C14.5463 7.76889 14.2826 7.50752 13.9588 7.51018C13.6352 7.51217 13.3745 7.77611 13.3765 8.09971C13.3804 8.7249 13.8037 9.25084 14.3774 9.41279V9.44115C14.3774 9.76475 14.6397 10.0271 14.9633 10.0271C15.2868 10.0271 15.5492 9.76475 15.5492 9.44115V9.41158C15.7775 9.3483 15.9865 9.22658 16.1574 9.05346C16.4153 8.79229 16.556 8.44635 16.5534 8.07842V8.07475C16.5505 7.64498 16.3425 7.23576 15.9969 6.98014L14.6266 5.96635C14.4709 5.85119 14.5527 5.60307 14.7466 5.60307H15.1773C15.2885 5.60307 15.3789 5.69342 15.3789 5.80447C15.3789 6.12807 15.6413 6.39041 15.9648 6.39041C16.2884 6.39041 16.5507 6.12807 16.5507 5.80447C16.5507 5.17615 16.1263 4.64537 15.5491 4.48279V4.45459C15.5491 4.131 15.2868 3.86865 14.9632 3.86865C14.6397 3.86865 14.3773 4.131 14.3773 4.45459V4.48201C13.7988 4.64369 13.373 5.17514 13.373 5.80447C13.3731 6.23787 13.5811 6.65053 13.9296 6.90838Z" fill="#232323"/>
<path d="M14.9645 11.8951C17.6933 11.8951 19.9133 9.67567 19.9133 6.94754C19.9133 4.21941 17.6932 2 14.9645 2C12.2357 2 10.0156 4.21945 10.0156 6.94758C10.0156 9.6757 12.2357 11.8951 14.9645 11.8951ZM14.9645 3.17188C17.0471 3.17188 18.7414 4.86566 18.7414 6.94758C18.7414 9.02949 17.0471 10.7233 14.9645 10.7233C12.8818 10.7233 11.1875 9.02949 11.1875 6.94758C11.1875 4.86566 12.8818 3.17188 14.9645 3.17188Z" fill="#232323"/>
<path d="M21.5971 13.2181C20.9634 12.4022 19.8193 12.2488 18.9958 12.8201L16.7664 14.3115C16.4566 13.7347 15.8475 13.3415 15.1481 13.3415H13.5578C12.7551 12.5886 11.6834 12.1611 10.578 12.1611C9.74836 12.1611 8.94129 12.3955 8.24414 12.8389C7.61598 13.2385 7.10215 13.7905 6.74907 14.4421L6.45055 14.6247L6.37321 14.3984C6.26852 14.0923 5.93555 13.9289 5.62938 14.0335L2.3966 15.1382C2.09055 15.2427 1.92696 15.576 2.03164 15.8822L3.98762 21.6034C4.09235 21.9097 4.42543 22.0728 4.73145 21.9683L7.96422 20.8637C8.25293 20.765 8.44207 20.4499 8.3227 20.1007L13.4524 19.942C14.8494 19.9401 16.1891 19.5111 17.3271 18.7011L21.1955 15.9495C22.0824 15.3182 22.2655 14.078 21.5971 13.2181ZM4.90692 20.6699L3.33004 16.0576L5.45391 15.3319C5.6827 16.0011 6.79465 19.2535 7.03078 19.9443L4.90692 20.6699ZM20.5162 14.9946L16.6477 17.7462C15.7067 18.416 14.5985 18.77 13.4431 18.77C13.4371 18.77 13.431 18.7701 13.425 18.7703L7.92606 18.9405L6.83895 15.7607L7.49969 15.3566C7.49985 15.3566 7.49996 15.3564 7.50012 15.3563C7.59739 15.2968 7.67344 15.2094 7.71985 15.1148C8.2591 14.0157 9.3543 13.3329 10.578 13.3329C11.4623 13.3329 12.2836 13.687 12.8907 14.3298C13.0025 14.4482 13.1631 14.5132 13.3167 14.5132H15.1481C15.5142 14.5132 15.812 14.8109 15.812 15.1768C15.812 15.5389 15.5191 15.8404 15.1481 15.8404H11.8423C11.5187 15.8404 11.2564 16.1027 11.2564 16.4263C11.2564 16.7499 11.5187 17.0122 11.8423 17.0122H15.1481C15.6388 17.0122 16.0999 16.8211 16.4459 16.4746C16.6881 16.2325 16.8539 15.9348 16.9322 15.6104L19.6518 13.791C19.6551 13.7888 19.6583 13.7866 19.6616 13.7843C19.9823 13.5603 20.4265 13.6213 20.6718 13.937C20.9304 14.2698 20.8597 14.7501 20.5162 14.9946Z" fill="#232323"/>
</svg>
