<svg width="24" height="24" viewBox="0 0 24 24" fill="none" xmlns="http://www.w3.org/2000/svg">
<path d="M15 14.5H9C5.416 14.5 2.5 17.416 2.5 21V22C2.5 22.2175 2.6405 22.41 2.8475 22.4765C2.9785 22.518 6.1145 23.5 12 23.5C17.8855 23.5 21.0215 22.518 21.1525 22.4765C21.3595 22.41 21.5 22.2175 21.5 22V21C21.5 17.416 18.584 14.5 15 14.5Z" fill="black"/>
<path d="M12 12.5C15.0975 12.5 17.5 9.006 17.5 6C17.5 2.9675 15.0325 0.5 12 0.5C8.9675 0.5 6.5 2.9675 6.5 6C6.5 9.006 8.9025 12.5 12 12.5Z" fill="black"/>
</svg>
