<svg width="25" height="24" viewBox="0 0 25 24" fill="none" xmlns="http://www.w3.org/2000/svg">
<g opacity="0.4">
<path d="M13.3672 18.4043H11.6094V16.6465H13.3672V18.4043ZM13.3672 13.269C15.0666 12.8578 16.2441 11.3161 16.1769 9.57253C16.104 7.67395 14.5463 6.1301 12.6308 6.05841C11.6075 6.01982 10.6409 6.38635 9.91034 7.08989C9.19225 7.78162 8.79688 8.70955 8.79688 9.70312H10.5547C10.5547 9.19157 10.7588 8.71312 11.1295 8.35606C11.5131 7.98665 12.0225 7.79507 12.5649 7.81485C13.5676 7.85262 14.3826 8.65421 14.4205 9.64009C14.4557 10.5588 13.8216 11.3706 12.9124 11.5701C12.1451 11.7385 11.6094 12.4015 11.6094 13.1825V14.8887H13.3672V13.269ZM20.4432 19.9432C22.5681 17.8185 23.7383 14.9932 23.7383 11.9883C23.7383 8.98338 22.5681 6.15811 20.4432 4.03336C18.3185 1.90846 15.4932 0.738281 12.4883 0.738281C9.48338 0.738281 6.65811 1.90846 4.53336 4.03336C2.40846 6.15811 1.23828 8.98338 1.23828 11.9883C1.23828 14.9932 2.40846 17.8185 4.53336 19.9432C6.65811 22.0681 9.48338 23.2383 12.4883 23.2383C15.4932 23.2383 18.3185 22.0681 20.4432 19.9432ZM21.9805 11.9883C21.9805 17.2222 17.7222 21.4805 12.4883 21.4805C7.25439 21.4805 2.99609 17.2222 2.99609 11.9883C2.99609 6.75439 7.25439 2.49609 12.4883 2.49609C17.7222 2.49609 21.9805 6.75439 21.9805 11.9883Z" fill="#1C1D1F"/>
</g>
</svg>
