<svg width="24" height="24" viewBox="0 0 24 24" fill="none" xmlns="http://www.w3.org/2000/svg">
<path d="M19.1474 2C18.7529 2 18.4331 2.31979 18.4331 2.7143V5.32355C14.7556 1.76328 8.88839 1.85829 5.32812 5.53566C3.65026 7.26872 2.71423 9.58773 2.71887 11.9999C2.71887 12.3944 3.03867 12.7142 3.43317 12.7142C3.82767 12.7142 4.14742 12.3944 4.14742 11.9999C4.1483 7.66059 7.66672 4.14352 12.0061 4.1444C14.2099 4.14481 16.3122 5.0708 17.8002 6.69639L14.636 7.75137C14.2612 7.87605 14.0585 8.28089 14.1831 8.65563C14.3078 9.03038 14.7127 9.23315 15.0874 9.10848L19.3731 7.67993C19.6657 7.58249 19.8627 7.30828 19.8617 6.99995V2.71425C19.8616 2.31979 19.5419 2 19.1474 2Z" fill="#232323"/>
<path d="M20.2903 11.2853C19.8958 11.2853 19.576 11.6051 19.576 11.9996C19.5751 16.3389 16.0567 19.856 11.7173 19.8551C9.51346 19.8547 7.41116 18.9287 5.92314 17.3031L9.0874 16.2482C9.46214 16.1235 9.66492 15.7186 9.54024 15.3439C9.41556 14.9691 9.01072 14.7664 8.63598 14.8911L4.35028 16.3196C4.05773 16.417 3.86074 16.6913 3.8617 16.9996V21.2853C3.8617 21.6798 4.18149 21.9996 4.57599 21.9996C4.9705 21.9996 5.29029 21.6798 5.29029 21.2853V18.676C8.9677 22.2362 14.835 22.1413 18.3952 18.4639C20.0731 16.7308 21.0091 14.4118 21.0045 11.9996C21.0046 11.6051 20.6848 11.2853 20.2903 11.2853Z" fill="#232323"/>
</svg>
