<svg width="24" height="24" viewBox="0 0 24 24" fill="none" xmlns="http://www.w3.org/2000/svg">
<path d="M12 2C8.43208 2 5.52942 4.9027 5.52942 8.47058C5.85471 17.0429 18.1466 17.0406 18.4706 8.4705C18.4706 4.9027 15.5679 2 12 2ZM13.7647 6.70588H12C11.2207 6.7356 11.2209 7.85278 12 7.88234C13.9893 7.91987 14.4301 10.6294 12.5882 11.3106V12.5882H11.4118V11.4118H10.2353V10.2353H12C12.7793 10.2056 12.7791 9.08838 12 9.05881C10.0107 9.02128 9.56988 6.31176 11.4118 5.63058V4.35294H12.5882V5.52941H13.7647V6.70588Z" fill="#232323"/>
<path d="M9.05882 15.5291V17.2941H14.9412V15.5291C13.0652 16.3137 10.9373 16.3147 9.05882 15.5291Z" fill="#232323"/>
<path d="M10.8235 18.4706H13.1765V22H10.8235V18.4706Z" fill="#232323"/>
</svg>
