<svg width="24" height="24" viewBox="0 0 24 24" fill="none" xmlns="http://www.w3.org/2000/svg">
<path d="M16.3995 3C13.6967 3 11.4978 5.19888 11.4978 7.90174V10.032H3.76841C3.17765 10.032 2.69868 10.5109 2.69868 11.1017V19.9303C2.69868 20.5211 3.17765 21 3.76841 21H14.731C15.3218 21 15.8007 20.5211 15.8007 19.9303V11.1017C15.8007 10.5109 15.3218 10.032 14.731 10.032H14.1514V7.90174C14.1514 6.66213 15.1599 5.65357 16.3996 5.65357C17.6393 5.65357 18.6478 6.66206 18.6478 7.90174C18.6478 8.63452 19.2418 9.22853 19.9746 9.22853C20.7074 9.22853 21.3014 8.63452 21.3014 7.90174C21.3013 5.19895 19.1024 3 16.3995 3ZM10.289 15.62V17.3735C10.289 17.9475 9.82365 18.4128 9.24969 18.4128C8.67572 18.4128 8.21041 17.9475 8.21041 17.3735V15.62C7.82001 15.3123 7.56905 14.8355 7.56905 14.2998C7.56905 13.3716 8.32147 12.6192 9.24969 12.6192C10.1779 12.6192 10.9303 13.3716 10.9303 14.2998C10.9303 14.8355 10.6794 15.3123 10.289 15.62Z" fill="#343434"/>
</svg>
