<svg width="24" height="24" viewBox="0 0 24 24" fill="none" xmlns="http://www.w3.org/2000/svg">
<path d="M18.729 9.216C18.456 5.74275 15.5422 3 12 3C8.97 3 6.369 4.968 5.52975 7.83825C3.13575 8.66925 1.5 10.9373 1.5 13.5C1.5 16.8082 4.19175 19.5 7.5 19.5H17.25C20.145 19.5 22.5 17.145 22.5 14.25C22.5 11.8883 20.9475 9.861 18.729 9.216ZM17.25 18H7.5C5.01825 18 3 15.9818 3 13.5C3 11.466 4.37475 9.6795 6.34275 9.156C6.61275 9.084 6.8205 8.868 6.882 8.59575C7.4145 6.22275 9.567 4.5 12 4.5C14.7705 4.5 17.247 6.693 17.247 9.81675C17.247 10.1835 17.5117 10.4962 17.8732 10.5562C19.6852 10.86 21 12.4132 21 14.25C21 16.3177 19.3177 18 17.25 18Z" fill="#232323"/>
<path d="M15.5303 10.7198C15.8235 11.013 15.8235 11.487 15.5303 11.7803C15.237 12.0735 14.763 12.0735 14.4698 11.7803L12.75 10.0605V15.75C12.75 16.164 12.414 16.5 12 16.5C11.586 16.5 11.25 16.164 11.25 15.75V10.0605L9.53025 11.7803C9.237 12.0735 8.763 12.0735 8.46975 11.7803C8.1765 11.487 8.1765 11.013 8.46975 10.7198L11.4698 7.71975C11.7623 7.42725 12.2408 7.4295 12.531 7.71975L15.5303 10.7198Z" fill="#232323"/>
</svg>
