<svg width="24" height="24" viewBox="0 0 24 24" fill="none" xmlns="http://www.w3.org/2000/svg">
<path d="M19.6562 2H4.34375C3.05141 2 2 3.05141 2 4.34375V9.03125C2 10.3236 3.05141 11.375 4.34375 11.375H5.125V9.8125H4.34375C3.91297 9.8125 3.5625 9.46203 3.5625 9.03125V4.34375C3.5625 3.91297 3.91297 3.5625 4.34375 3.5625H19.6562C20.087 3.5625 20.4375 3.91297 20.4375 4.34375V9.03125C20.4375 9.46203 20.087 9.8125 19.6562 9.8125H18.875V11.375H19.6562C20.9486 11.375 22 10.3236 22 9.03125V4.34375C22 3.05141 20.9486 2 19.6562 2Z" fill="#232323"/>
<path d="M18.875 6.6875V5.125H5.125V6.6875H6.53125V19.6562C6.53125 20.9486 7.58266 22 8.875 22H15.125C16.4173 22 17.4688 20.9486 17.4688 19.6562V6.6875H18.875ZM8.09375 19.6562V18.875H8.875C9.30578 18.875 9.65625 19.2255 9.65625 19.6562V20.4375H8.875C8.44422 20.4375 8.09375 20.087 8.09375 19.6562ZM15.125 20.4375H14.3438V19.6562C14.3438 19.2255 14.6942 18.875 15.125 18.875H15.9062V19.6562C15.9062 20.087 15.5558 20.4375 15.125 20.4375ZM15.9062 17.3125H15.125C13.8327 17.3125 12.7812 18.3639 12.7812 19.6562V20.4375H11.2188V19.6562C11.2188 18.3639 10.1673 17.3125 8.875 17.3125H8.09375V6.6875H15.9062V17.3125Z" fill="#232323"/>
<path d="M12 14.5C13.2923 14.5 14.3438 13.4486 14.3438 12.1562C14.3438 10.8639 13.2923 9.8125 12 9.8125C10.7077 9.8125 9.65625 10.8639 9.65625 12.1562C9.65625 13.4486 10.7077 14.5 12 14.5ZM12 11.375C12.4308 11.375 12.7812 11.7255 12.7812 12.1562C12.7812 12.587 12.4308 12.9375 12 12.9375C11.5692 12.9375 11.2188 12.587 11.2188 12.1562C11.2188 11.7255 11.5692 11.375 12 11.375Z" fill="#232323"/>
</svg>
