<svg width="33" height="32" viewBox="0 0 33 32" fill="none" xmlns="http://www.w3.org/2000/svg">
<g clip-path="url(#clip0_395_4820)">
<path fill-rule="evenodd" clip-rule="evenodd" d="M23.9284 0C25.7837 2.8645 25.1785 6.29395 24.9365 7.66537L24.9358 7.6692C29.0927 7.6692 32.4674 10.0789 32.4997 15.3782C32.4999 15.4038 32.5 15.4294 32.5 15.4551C32.5 15.4977 32.4995 15.5403 32.4985 15.5831C32.3436 23.0056 18.8215 32 18.8215 32C18.8215 32 18.8214 31.9999 18.8212 31.9998C18.821 31.9999 18.8209 32 18.8209 32C18.8209 32 16.6828 30.5778 14.0973 28.3978C10.1706 29.2598 5.30617 27.2178 3.97513 26.0164L3.28551 26.7602L0.5 22.9373L5.60677 24.3709L4.67827 25.3266C5.869 26.555 9.68375 26.6669 11.7841 26.3337C8.47078 23.1925 5.21939 19.2011 5.14387 15.5831C5.1429 15.5404 5.14241 15.4977 5.14241 15.4551C5.14241 15.4294 5.14253 15.4038 5.14277 15.3782C5.17503 10.0789 8.54976 7.6692 12.7066 7.6692L12.706 7.66537C12.4639 6.29395 11.8587 2.8645 13.714 0C13.3084 1.37718 14.1782 6.21179 16.2179 8.56145C17.2488 9.1213 18.1391 9.9195 18.8212 10.8835C19.5034 9.9195 20.3937 9.12131 21.4246 8.56145C23.4643 6.2118 24.334 1.37718 23.9284 0Z" fill="#CC003D"/>
</g>
<defs>
<clipPath id="clip0_395_4820">
<rect width="32" height="32" fill="white" transform="translate(0.5)"/>
</clipPath>
</defs>
</svg>
