<svg width="32" height="32" viewBox="0 0 32 32" fill="none" xmlns="http://www.w3.org/2000/svg">
<path fill-rule="evenodd" clip-rule="evenodd" d="M15.9994 10.925L13.5745 7.59485C12.5009 6.12053 10.7833 5.17578 8.84772 5.17578C6.94436 5.17578 5.52071 5.71252 4.60662 6.54117C3.74223 7.32477 3 8.66865 3 11.0235C3 12.2435 3.60543 13.8642 4.96381 15.8197C6.28579 17.7228 8.10684 19.6375 10.0197 21.3795C11.9191 23.1092 13.8312 24.5987 15.2754 25.6592C15.5231 25.8412 15.7564 26.01 15.9726 26.1646C16.1954 26.0008 16.4364 25.8215 16.6928 25.628C18.1413 24.5352 20.0595 23.0064 21.9654 21.2478C23.8851 19.4765 25.7145 17.543 27.0429 15.6468C28.4179 13.6841 29 12.1219 29 11.0235C29 7.79482 26.3814 5.17578 23.1514 5.17578C21.2166 5.17578 19.4985 6.12053 18.4246 7.59501L15.9994 10.925ZM13.8332 3.72079C12.4146 2.74695 10.6991 2.17578 8.84772 2.17578C3.962 2.17578 0 4.94053 0 11.0235C0 19.4858 15.9996 29.825 15.9996 29.825C15.9996 29.825 32 19.0991 32 11.0235C32 6.13779 28.0381 2.17578 23.1514 2.17578C21.3004 2.17578 19.5848 2.74699 18.1662 3.7209C17.3297 4.29509 16.5965 5.00926 15.9996 5.82888C15.4027 5.00921 14.6696 4.295 13.8332 3.72079Z" fill="#CC003D"/>
</svg>
