<svg width="32" height="32" viewBox="0 0 32 32" fill="none" xmlns="http://www.w3.org/2000/svg">
<g clip-path="url(#clip0_395_1343)">
<path d="M15.9909 4.218C9.01587 -1.88266 0.14723 3.47755 0.00180337 10.7442C-0.0352563 12.5961 0.499328 14.4 1.56343 16.0631H8.46066L9.68744 14.0184C10.0437 13.4247 10.9057 13.4056 11.2821 13.9974L13.8705 18.0648L17.6435 10.0997C17.9726 9.40473 18.9532 9.38266 19.3161 10.0566L22.5503 16.0631H30.4184C36.2468 6.95379 24.7279 -3.42361 15.9909 4.218Z" fill="#CC003D"/>
<path d="M21.1656 18.2451L18.5448 13.3779L14.8387 21.2017C14.5234 21.8673 13.5961 21.9251 13.2007 21.3037L10.5152 17.0838L9.79574 18.283C9.62631 18.5653 9.32121 18.7381 8.99192 18.7381H3.04688C3.23324 18.9331 2.24 17.9419 15.3302 30.9643C15.6958 31.328 16.2868 31.3281 16.6525 30.9643C29.5412 18.1422 28.7498 18.9328 28.9358 18.7381H21.9909C21.646 18.7381 21.329 18.5488 21.1656 18.2451Z" fill="#CC003D"/>
</g>
<defs>
<clipPath id="clip0_395_1343">
<rect width="32" height="32" fill="white"/>
</clipPath>
</defs>
</svg>
